<svg xmlns="http://www.w3.org/2000/svg" viewBox="0 0 128 128">
  <defs>
    <linearGradient id="bg" x1="0" y1="0" x2="1" y2="1">
      <stop offset="0" stop-color="#33e28a"/>
      <stop offset="1" stop-color="#15b86c"/>
    </linearGradient>
    <filter id="glow" x="-50%" y="-50%" width="200%" height="200%">
      <feGaussianBlur stdDeviation="4" result="b"/>
      <feMerge><feMergeNode in="b"/><feMergeNode in="SourceGraphic"/></feMerge>
    </filter>
    <filter id="shadow" x="-20%" y="-20%" width="140%" height="140%">
      <feDropShadow dx="0" dy="6" stdDeviation="6" flood-color="#000814" flood-opacity=".42"/>
    </filter>
  </defs>
  <rect x="10" y="10" width="108" height="108" rx="26" fill="#0b1825" stroke="url(#bg)" stroke-width="3" filter="url(#shadow)"/>
  <rect x="18" y="18" width="92" height="92" rx="22" fill="url(#bg)" opacity=".16"/>
  <g stroke="url(#bg)" fill="none" stroke-width="7" stroke-linecap="round" stroke-linejoin="round" filter="url(#glow)">
    
<path d="M37 30h36l18 18v35c0 8-5 13-13 13H37c-8 0-13-5-13-13V43c0-8 5-13 13-13Z"/>
<path d="M72 30v20h19"/>
<path d="M44 58 35 66l9 8M58 55l-7 22M65 58l9 8-9 8"/>
<circle cx="91" cy="90" r="17" fill="#0b1825"/>
<path d="m83 90 6 6 11-13"/>

  </g>
</svg>